<svg version="1.1" id="Layer_1" xmlns="http://www.w3.org/2000/svg" xmlns:xlink="http://www.w3.org/1999/xlink" x="0px" y="0px"
	 width="100%" viewBox="0 0 1024 1024" enable-background="new 0 0 1024 1024" xml:space="preserve">
<path fill="#000000" opacity="1.000000" stroke="none" 
	d="
M623.192261,186.631866 
	C654.011597,196.717606 682.644470,210.364746 708.294861,229.687180 
	C732.284607,247.758636 753.851257,268.501465 763.555054,297.665558 
	C768.358887,312.103027 778.215881,319.537201 789.469055,327.365723 
	C819.382263,348.175476 842.553711,374.644867 855.706238,409.152191 
	C863.338074,429.175507 864.870422,449.810699 862.436401,470.926971 
	C859.615967,495.395081 850.517029,517.151428 834.652771,536.029663 
	C833.588867,537.295654 832.427551,538.536133 831.113464,539.525269 
	C826.652649,542.883362 823.876770,541.795959 822.615601,536.371155 
	C817.089600,512.603088 803.373718,496.678284 778.703247,492.283173 
	C753.537964,487.799896 732.663391,495.977875 716.886597,516.039062 
	C706.301086,529.499207 701.672791,545.297363 700.259094,562.288757 
	C696.664307,605.493774 711.048950,644.045105 730.275452,681.485474 
	C751.455261,722.729614 776.786011,761.517700 800.646240,801.177063 
	C803.307495,805.600342 806.176514,809.900879 808.764465,814.365417 
	C811.627502,819.304382 809.798889,822.721069 804.100464,823.316162 
	C802.615173,823.471313 801.103638,823.392090 799.604187,823.392090 
	C577.476379,823.392456 355.348541,823.390991 133.220718,823.385803 
	C123.870964,823.385559 122.052170,821.990417 122.778114,812.692139 
	C123.680389,801.135315 125.447746,789.643066 126.946686,778.136536 
	C129.129868,761.377686 131.365692,744.625366 133.655930,727.880737 
	C135.811996,712.117188 138.109329,696.373047 140.267807,680.609802 
	C142.448181,664.686707 144.521149,648.748901 146.665619,632.820801 
	C148.700729,617.705139 150.746384,602.590820 152.826691,587.481323 
	C154.721298,573.720459 156.838776,559.987915 158.548965,546.204529 
	C160.610275,529.591614 163.213623,513.057190 165.437149,496.472290 
	C168.882355,470.775299 173.908340,445.415375 180.726425,420.432373 
	C194.166046,371.186646 214.121155,324.977264 245.207672,284.040619 
	C289.553711,225.642990 347.764893,189.131943 419.309021,173.680161 
	C438.493042,169.536911 457.915619,167.596893 477.527283,166.380905 
	C496.411102,165.210052 515.140991,166.188217 533.826843,167.843842 
	C564.175964,170.532898 593.873718,176.847702 623.192261,186.631866 
M629.975098,710.525024 
	C643.062012,723.584900 656.128784,736.656860 669.648438,749.283325 
	C690.221436,768.497192 710.438477,788.091858 730.969116,807.351685 
	C733.838989,810.043823 736.651978,813.325256 741.239258,814.186584 
	C742.188477,810.836792 740.225952,808.734253 738.929321,806.593689 
	C731.424500,794.203491 723.788818,781.892517 716.217590,769.542358 
	C698.455078,740.567688 681.082825,711.404053 668.538147,679.640503 
	C653.933655,642.661316 646.146606,604.633301 649.574951,564.693481 
	C651.555298,541.623108 657.706787,519.947937 670.314026,500.320312 
	C671.159973,499.003204 672.625122,497.784790 671.701965,495.897247 
	C671.346497,495.752533 671.022217,495.487518 670.757324,495.537445 
	C669.948669,495.689911 669.125732,495.877716 668.373535,496.202545 
	C633.733582,511.160492 604.570129,532.172913 588.910828,568.113525 
	C588.267273,569.590515 587.734863,571.620789 585.506897,570.936890 
	C583.544495,570.334473 583.606079,568.373596 583.660278,566.712585 
	C583.854736,560.743408 583.816040,554.804077 584.442627,548.805481 
	C586.925293,525.039978 596.657349,504.576965 612.526917,487.189789 
	C650.056763,446.070923 697.365723,430.855469 751.860291,436.908691 
	C774.725647,439.448547 795.491821,448.404327 814.100159,462.104248 
	C815.752625,463.320862 817.199036,465.240479 819.947693,464.544647 
	C820.152405,463.792969 820.511414,463.025757 820.552856,462.241730 
	C821.585022,442.706146 818.111938,424.305847 808.033691,407.170624 
	C796.429626,387.441162 778.997620,373.521027 761.941711,359.136536 
	C759.377808,356.974243 757.641785,357.611847 755.895508,360.287384 
	C753.532532,363.907776 751.088928,367.522247 748.279541,370.795624 
	C740.190979,380.220215 731.195557,388.588684 719.519104,393.486450 
	C712.274719,396.525146 708.544556,393.988403 708.624146,386.303131 
	C708.652588,383.561005 709.582092,381.089355 710.398193,378.566620 
	C713.725647,368.281219 717.242920,358.063812 720.068970,347.612183 
	C726.812561,322.672485 721.413452,301.159088 703.280273,282.502991 
	C689.239990,268.057892 672.868774,257.152344 654.946960,248.406647 
	C609.992249,226.469101 562.131531,216.330276 512.434143,214.559860 
	C489.681458,213.749313 466.990387,214.754761 444.325867,218.327362 
	C417.631165,222.535217 392.854553,231.481110 369.462219,244.555374 
	C330.286316,266.451324 300.122314,297.654297 276.840118,335.717468 
	C261.306091,361.113434 249.317902,388.198212 239.931305,416.403320 
	C230.904694,443.526733 224.338776,471.273132 220.293121,499.589417 
	C218.491364,512.200195 216.787308,524.825256 215.087891,537.450378 
	C212.811142,554.364746 210.531921,571.279114 208.347717,588.205627 
	C206.524017,602.338440 204.868073,616.492981 203.078125,630.630249 
	C201.204758,645.426453 199.249786,660.212158 197.349503,675.004944 
	C195.470856,689.629456 193.620407,704.257629 191.749313,718.883118 
	C189.961075,732.860962 187.984863,746.817871 186.437775,760.822205 
	C185.576401,768.619263 185.894928,768.648376 193.597549,768.648254 
	C319.587189,768.646790 445.576813,768.659424 571.566467,768.619507 
	C580.219788,768.616821 588.900757,769.190552 597.523071,767.935059 
	C599.576538,767.635986 602.389587,768.552917 603.338440,766.123291 
	C604.411316,763.376526 601.526611,762.118713 599.975098,760.568848 
	C552.699219,713.344116 505.893311,665.644043 457.743378,619.302490 
	C445.270294,607.297974 433.072144,594.932922 419.166473,584.517273 
	C396.980988,567.899902 372.739105,558.339966 344.327789,562.495422 
	C306.121735,568.083618 278.534943,604.607788 286.071808,646.060486 
	C289.799896,666.564758 301.221802,682.669739 319.674286,692.730042 
	C335.960205,701.609131 352.882782,703.599976 369.306030,692.622375 
	C381.552307,684.436768 385.020813,670.665466 378.365448,658.016296 
	C373.661438,649.075806 366.430939,642.930664 357.017029,639.386230 
	C347.553802,635.823181 337.882996,635.743225 328.134186,638.038147 
	C326.459900,638.432190 324.571442,638.922607 323.400543,637.632690 
	C322.095123,636.194641 322.576874,634.203674 323.263214,632.418274 
	C324.234924,629.890503 325.600891,627.638489 327.594727,625.782532 
	C342.921082,611.515991 360.690094,608.214417 380.299164,614.551208 
	C407.640839,623.386902 426.886993,650.442444 426.533600,680.165100 
	C426.227875,705.878845 414.887451,724.500793 392.886993,736.645752 
	C364.329376,752.410400 334.877563,752.093201 305.546295,738.960571 
	C253.200134,715.523376 227.158646,661.129639 236.067352,605.230042 
	C241.128372,573.473450 257.877258,547.913208 283.634888,528.633057 
	C312.895599,506.730774 346.315094,501.041748 381.648956,505.986725 
	C407.601013,509.618744 430.297180,521.598877 450.889984,537.496765 
	C476.403870,557.193787 498.974426,580.161194 521.896362,602.672424 
	C558.039429,638.167969 593.640381,674.215454 629.975098,710.525024 
z"/>
<path fill="#000000" opacity="1.000000" stroke="none" 
	d="
M672.779846,303.128479 
	C680.243774,307.279541 687.211243,311.532135 693.633362,316.604950 
	C700.919922,322.360535 706.102844,329.470917 707.645386,338.875519 
	C708.550476,344.393646 707.365051,349.217987 702.659180,352.540375 
	C697.904114,355.897552 693.512573,354.086975 689.381531,350.957794 
	C687.550659,349.571014 685.662354,348.260010 683.410828,346.633270 
	C681.812317,352.307922 680.603149,357.598145 678.837097,362.695404 
	C671.585388,383.625031 657.897949,399.684265 639.970581,412.138245 
	C616.752075,428.267944 590.875305,436.816772 562.586121,438.435486 
	C520.789856,440.827179 485.896332,425.819214 455.899384,397.473389 
	C447.569763,389.602234 438.866821,382.042053 428.963257,376.057220 
	C398.202332,357.468079 367.537262,356.885559 336.697205,376.032623 
	C315.569092,389.150055 298.488525,406.452209 283.502991,426.040955 
	C282.693787,427.098694 282.076721,428.346832 281.120972,429.239410 
	C279.471832,430.779541 278.823853,434.850616 275.731445,433.016724 
	C273.138763,431.479156 275.031342,428.329376 275.826141,426.144592 
	C285.125885,400.579712 298.344452,377.118652 315.015381,355.698883 
	C343.637299,318.923828 378.304047,289.673706 421.867249,271.911682 
	C437.333344,265.605713 453.483337,261.718475 470.040344,259.656342 
	C499.661255,255.967133 529.056946,258.453552 558.300537,263.451599 
	C598.513672,270.324463 636.034607,285.071533 672.779846,303.128479 
M504.388794,390.095490 
	C523.390747,405.482300 544.747742,412.989166 569.425964,409.589111 
	C567.164307,407.836700 564.704102,406.599854 562.161255,405.566467 
	C522.838562,389.585663 505.119568,343.759094 526.170654,305.658539 
	C529.055603,300.437103 528.424561,299.210114 522.563721,298.918671 
	C499.896912,297.791473 477.422394,298.862579 455.469666,305.310760 
	C438.967926,310.157867 423.370697,316.998871 407.958435,326.672363 
	C414.391449,327.561829 419.937256,328.110840 425.397705,329.121277 
	C449.099274,333.506958 466.613831,347.498260 481.599213,365.455780 
	C488.621582,373.870941 495.074799,382.831238 504.388794,390.095490 
M574.667542,318.380554 
	C576.260986,316.252228 577.794556,314.075684 579.460632,312.005859 
	C582.681030,308.005127 582.138306,306.298065 577.232056,305.384064 
	C574.138184,304.807739 571.020203,304.349945 567.944397,303.692261 
	C565.961853,303.268433 564.405029,303.580566 563.038757,305.188782 
	C551.430054,318.852905 546.083374,335.906219 552.994568,353.925842 
	C559.632202,371.232025 578.580139,385.959259 603.117493,384.780640 
	C623.334900,383.809479 642.701477,370.507843 649.157043,351.389923 
	C651.643616,344.025818 652.562012,336.485260 651.051514,328.807343 
	C650.298340,324.979370 641.034363,320.172791 637.467163,321.542633 
	C635.256531,322.391571 635.098267,324.138947 635.605164,326.072113 
	C636.319214,328.795441 637.274231,331.442749 637.357422,334.320740 
	C638.010315,356.918793 616.984253,373.525787 594.890259,367.827393 
	C573.999573,362.439331 564.536316,340.020813 574.667542,318.380554 
z"/>
</svg>